<mxfile host="app.diagrams.net" agent="Mozilla/5.0 (Windows NT 10.0; Win64; x64) AppleWebKit/537.36 (KHTML, like Gecko) Chrome/130.0.0.0 Safari/537.36" version="24.8.3">
  <diagram name="Página-1" id="D3XW5Nuf_2VkJk_WRS9o">
    <mxGraphModel dx="1290" dy="563" grid="1" gridSize="10" guides="1" tooltips="1" connect="1" arrows="1" fold="1" page="1" pageScale="1" pageWidth="827" pageHeight="1169" math="0" shadow="0">
      <root>
        <mxCell id="0" />
        <mxCell id="1" parent="0" />
        <mxCell id="wstb7iu3mfs-qTQPYTGj-7" value="Cliente" style="swimlane;whiteSpace=wrap;html=1;" vertex="1" parent="1">
          <mxGeometry x="20" y="50" width="510" height="2190" as="geometry">
            <mxRectangle x="30" y="60" width="50" height="40" as="alternateBounds" />
          </mxGeometry>
        </mxCell>
        <mxCell id="wstb7iu3mfs-qTQPYTGj-37" style="edgeStyle=orthogonalEdgeStyle;rounded=0;orthogonalLoop=1;jettySize=auto;html=1;" edge="1" parent="wstb7iu3mfs-qTQPYTGj-7" source="wstb7iu3mfs-qTQPYTGj-25">
          <mxGeometry relative="1" as="geometry">
            <mxPoint x="90" y="200" as="targetPoint" />
          </mxGeometry>
        </mxCell>
        <mxCell id="wstb7iu3mfs-qTQPYTGj-38" value="Si" style="edgeLabel;html=1;align=center;verticalAlign=middle;resizable=0;points=[];" vertex="1" connectable="0" parent="wstb7iu3mfs-qTQPYTGj-37">
          <mxGeometry x="-0.5917" y="-2" relative="1" as="geometry">
            <mxPoint as="offset" />
          </mxGeometry>
        </mxCell>
        <mxCell id="wstb7iu3mfs-qTQPYTGj-39" style="edgeStyle=orthogonalEdgeStyle;rounded=0;orthogonalLoop=1;jettySize=auto;html=1;entryX=0.5;entryY=0;entryDx=0;entryDy=0;exitX=1;exitY=0.5;exitDx=0;exitDy=0;" edge="1" parent="wstb7iu3mfs-qTQPYTGj-7" source="wstb7iu3mfs-qTQPYTGj-25" target="wstb7iu3mfs-qTQPYTGj-33">
          <mxGeometry relative="1" as="geometry">
            <mxPoint x="290" y="130" as="targetPoint" />
          </mxGeometry>
        </mxCell>
        <mxCell id="wstb7iu3mfs-qTQPYTGj-40" value="No" style="edgeLabel;html=1;align=center;verticalAlign=middle;resizable=0;points=[];" vertex="1" connectable="0" parent="wstb7iu3mfs-qTQPYTGj-39">
          <mxGeometry x="-0.24" relative="1" as="geometry">
            <mxPoint as="offset" />
          </mxGeometry>
        </mxCell>
        <mxCell id="wstb7iu3mfs-qTQPYTGj-25" value="¿El usuario esta registrado?" style="rhombus;whiteSpace=wrap;html=1;" vertex="1" parent="wstb7iu3mfs-qTQPYTGj-7">
          <mxGeometry x="160" y="90" width="120" height="80" as="geometry" />
        </mxCell>
        <mxCell id="wstb7iu3mfs-qTQPYTGj-28" style="edgeStyle=orthogonalEdgeStyle;rounded=0;orthogonalLoop=1;jettySize=auto;html=1;entryX=0.5;entryY=0;entryDx=0;entryDy=0;" edge="1" parent="wstb7iu3mfs-qTQPYTGj-7" source="wstb7iu3mfs-qTQPYTGj-27" target="wstb7iu3mfs-qTQPYTGj-25">
          <mxGeometry relative="1" as="geometry" />
        </mxCell>
        <mxCell id="wstb7iu3mfs-qTQPYTGj-47" value="Inicio" style="edgeLabel;html=1;align=center;verticalAlign=middle;resizable=0;points=[];" vertex="1" connectable="0" parent="wstb7iu3mfs-qTQPYTGj-28">
          <mxGeometry x="-0.656" relative="1" as="geometry">
            <mxPoint as="offset" />
          </mxGeometry>
        </mxCell>
        <mxCell id="wstb7iu3mfs-qTQPYTGj-27" value="" style="ellipse;fillColor=strokeColor;html=1;" vertex="1" parent="wstb7iu3mfs-qTQPYTGj-7">
          <mxGeometry x="205" y="30" width="30" height="30" as="geometry" />
        </mxCell>
        <mxCell id="wstb7iu3mfs-qTQPYTGj-31" value="&lt;span style=&quot;text-align: right;&quot;&gt;Ingresar al sistema&lt;/span&gt;" style="html=1;dashed=0;rounded=1;absoluteArcSize=1;arcSize=20;verticalAlign=middle;align=center;whiteSpace=wrap;" vertex="1" parent="wstb7iu3mfs-qTQPYTGj-7">
          <mxGeometry x="30" y="210" width="130" height="30" as="geometry" />
        </mxCell>
        <mxCell id="wstb7iu3mfs-qTQPYTGj-32" value="*" style="text;resizeWidth=0;resizeHeight=0;points=[];part=1;verticalAlign=middle;align=center;html=1;" vertex="1" parent="wstb7iu3mfs-qTQPYTGj-31">
          <mxGeometry x="1" y="0.5" width="20" height="20" relative="1" as="geometry">
            <mxPoint x="-20" y="-10" as="offset" />
          </mxGeometry>
        </mxCell>
        <mxCell id="wstb7iu3mfs-qTQPYTGj-41" style="edgeStyle=orthogonalEdgeStyle;rounded=0;orthogonalLoop=1;jettySize=auto;html=1;entryX=0.5;entryY=0;entryDx=0;entryDy=0;" edge="1" parent="wstb7iu3mfs-qTQPYTGj-7" source="wstb7iu3mfs-qTQPYTGj-33" target="wstb7iu3mfs-qTQPYTGj-35">
          <mxGeometry relative="1" as="geometry" />
        </mxCell>
        <mxCell id="wstb7iu3mfs-qTQPYTGj-33" value="&lt;span style=&quot;text-align: right;&quot;&gt;Registrar nuevo usuario&lt;/span&gt;" style="html=1;dashed=0;rounded=1;absoluteArcSize=1;arcSize=20;verticalAlign=middle;align=center;whiteSpace=wrap;" vertex="1" parent="wstb7iu3mfs-qTQPYTGj-7">
          <mxGeometry x="280" y="170" width="160" height="30" as="geometry" />
        </mxCell>
        <mxCell id="wstb7iu3mfs-qTQPYTGj-34" value="*" style="text;resizeWidth=0;resizeHeight=0;points=[];part=1;verticalAlign=middle;align=center;html=1;" vertex="1" parent="wstb7iu3mfs-qTQPYTGj-33">
          <mxGeometry x="1" y="0.5" width="20" height="20" relative="1" as="geometry">
            <mxPoint x="-20" y="-10" as="offset" />
          </mxGeometry>
        </mxCell>
        <mxCell id="wstb7iu3mfs-qTQPYTGj-43" style="edgeStyle=orthogonalEdgeStyle;rounded=0;orthogonalLoop=1;jettySize=auto;html=1;entryX=1;entryY=0.5;entryDx=0;entryDy=0;exitX=0.5;exitY=1;exitDx=0;exitDy=0;" edge="1" parent="wstb7iu3mfs-qTQPYTGj-7" source="wstb7iu3mfs-qTQPYTGj-35" target="wstb7iu3mfs-qTQPYTGj-42">
          <mxGeometry relative="1" as="geometry">
            <mxPoint x="330" y="320" as="targetPoint" />
          </mxGeometry>
        </mxCell>
        <mxCell id="wstb7iu3mfs-qTQPYTGj-35" value="&lt;span style=&quot;text-align: right;&quot;&gt;Ingresar al Sistema&lt;/span&gt;" style="html=1;dashed=0;rounded=1;absoluteArcSize=1;arcSize=20;verticalAlign=middle;align=center;whiteSpace=wrap;" vertex="1" parent="wstb7iu3mfs-qTQPYTGj-7">
          <mxGeometry x="280" y="240" width="160" height="30" as="geometry" />
        </mxCell>
        <mxCell id="wstb7iu3mfs-qTQPYTGj-36" value="*" style="text;resizeWidth=0;resizeHeight=0;points=[];part=1;verticalAlign=middle;align=center;html=1;" vertex="1" parent="wstb7iu3mfs-qTQPYTGj-35">
          <mxGeometry x="1" y="0.5" width="20" height="20" relative="1" as="geometry">
            <mxPoint x="-20" y="-10" as="offset" />
          </mxGeometry>
        </mxCell>
        <mxCell id="wstb7iu3mfs-qTQPYTGj-52" style="edgeStyle=orthogonalEdgeStyle;rounded=0;orthogonalLoop=1;jettySize=auto;html=1;entryX=0.5;entryY=0;entryDx=0;entryDy=0;" edge="1" parent="wstb7iu3mfs-qTQPYTGj-7" source="wstb7iu3mfs-qTQPYTGj-42" target="wstb7iu3mfs-qTQPYTGj-48">
          <mxGeometry relative="1" as="geometry" />
        </mxCell>
        <mxCell id="wstb7iu3mfs-qTQPYTGj-42" value="" style="rhombus;" vertex="1" parent="wstb7iu3mfs-qTQPYTGj-7">
          <mxGeometry x="185" y="310" width="45" height="40" as="geometry" />
        </mxCell>
        <mxCell id="wstb7iu3mfs-qTQPYTGj-45" style="edgeStyle=orthogonalEdgeStyle;rounded=0;orthogonalLoop=1;jettySize=auto;html=1;entryX=0.111;entryY=0.75;entryDx=0;entryDy=0;entryPerimeter=0;exitX=0.5;exitY=1;exitDx=0;exitDy=0;" edge="1" parent="wstb7iu3mfs-qTQPYTGj-7">
          <mxGeometry relative="1" as="geometry">
            <mxPoint x="90" y="230" as="sourcePoint" />
            <mxPoint x="184.995" y="330" as="targetPoint" />
            <Array as="points">
              <mxPoint x="90" y="330" />
            </Array>
          </mxGeometry>
        </mxCell>
        <mxCell id="wstb7iu3mfs-qTQPYTGj-53" style="edgeStyle=orthogonalEdgeStyle;rounded=0;orthogonalLoop=1;jettySize=auto;html=1;entryX=0.5;entryY=0;entryDx=0;entryDy=0;" edge="1" parent="wstb7iu3mfs-qTQPYTGj-7" source="wstb7iu3mfs-qTQPYTGj-48" target="wstb7iu3mfs-qTQPYTGj-50">
          <mxGeometry relative="1" as="geometry" />
        </mxCell>
        <mxCell id="wstb7iu3mfs-qTQPYTGj-48" value="&lt;span style=&quot;text-align: right;&quot;&gt;Seleccionar productos del catálogo&lt;/span&gt;" style="html=1;dashed=0;rounded=1;absoluteArcSize=1;arcSize=20;verticalAlign=middle;align=center;whiteSpace=wrap;" vertex="1" parent="wstb7iu3mfs-qTQPYTGj-7">
          <mxGeometry x="111.25" y="410" width="192.5" height="30" as="geometry" />
        </mxCell>
        <mxCell id="wstb7iu3mfs-qTQPYTGj-49" value="*" style="text;resizeWidth=0;resizeHeight=0;points=[];part=1;verticalAlign=middle;align=center;html=1;" vertex="1" parent="wstb7iu3mfs-qTQPYTGj-48">
          <mxGeometry x="1" y="0.5" width="20" height="20" relative="1" as="geometry">
            <mxPoint x="-20" y="-10" as="offset" />
          </mxGeometry>
        </mxCell>
        <mxCell id="wstb7iu3mfs-qTQPYTGj-50" value="&lt;span style=&quot;text-align: right;&quot;&gt;Enviar solicitud de pedido&lt;/span&gt;" style="html=1;dashed=0;rounded=1;absoluteArcSize=1;arcSize=20;verticalAlign=middle;align=center;whiteSpace=wrap;" vertex="1" parent="wstb7iu3mfs-qTQPYTGj-7">
          <mxGeometry x="111.25" y="480" width="192.5" height="30" as="geometry" />
        </mxCell>
        <mxCell id="wstb7iu3mfs-qTQPYTGj-51" value="*" style="text;resizeWidth=0;resizeHeight=0;points=[];part=1;verticalAlign=middle;align=center;html=1;" vertex="1" parent="wstb7iu3mfs-qTQPYTGj-50">
          <mxGeometry x="1" y="0.5" width="20" height="20" relative="1" as="geometry">
            <mxPoint x="-20" y="-10" as="offset" />
          </mxGeometry>
        </mxCell>
        <mxCell id="wstb7iu3mfs-qTQPYTGj-95" value="&lt;span style=&quot;text-align: right;&quot;&gt;Realizar pago&lt;/span&gt;" style="html=1;dashed=0;rounded=1;absoluteArcSize=1;arcSize=20;verticalAlign=middle;align=center;whiteSpace=wrap;" vertex="1" parent="wstb7iu3mfs-qTQPYTGj-7">
          <mxGeometry x="170" y="1340" width="150" height="30" as="geometry" />
        </mxCell>
        <mxCell id="wstb7iu3mfs-qTQPYTGj-96" value="*" style="text;resizeWidth=0;resizeHeight=0;points=[];part=1;verticalAlign=middle;align=center;html=1;" vertex="1" parent="wstb7iu3mfs-qTQPYTGj-95">
          <mxGeometry x="1" y="0.5" width="20" height="20" relative="1" as="geometry">
            <mxPoint x="-20" y="-10" as="offset" />
          </mxGeometry>
        </mxCell>
        <mxCell id="wstb7iu3mfs-qTQPYTGj-121" style="edgeStyle=orthogonalEdgeStyle;rounded=0;orthogonalLoop=1;jettySize=auto;html=1;entryX=0.5;entryY=0;entryDx=0;entryDy=0;" edge="1" parent="wstb7iu3mfs-qTQPYTGj-7" source="wstb7iu3mfs-qTQPYTGj-109" target="wstb7iu3mfs-qTQPYTGj-111">
          <mxGeometry relative="1" as="geometry" />
        </mxCell>
        <mxCell id="wstb7iu3mfs-qTQPYTGj-109" value="&lt;span style=&quot;text-align: right;&quot;&gt;Actualizar estado del pedido a &quot;En proceso&quot;&lt;/span&gt;" style="html=1;dashed=0;rounded=1;absoluteArcSize=1;arcSize=20;verticalAlign=middle;align=center;whiteSpace=wrap;" vertex="1" parent="wstb7iu3mfs-qTQPYTGj-7">
          <mxGeometry x="110" y="2010" width="270" height="40" as="geometry" />
        </mxCell>
        <mxCell id="wstb7iu3mfs-qTQPYTGj-110" value="*" style="text;resizeWidth=0;resizeHeight=0;points=[];part=1;verticalAlign=middle;align=center;html=1;" vertex="1" parent="wstb7iu3mfs-qTQPYTGj-109">
          <mxGeometry x="1" y="0.5" width="20" height="20" relative="1" as="geometry">
            <mxPoint x="-20" y="-10" as="offset" />
          </mxGeometry>
        </mxCell>
        <mxCell id="wstb7iu3mfs-qTQPYTGj-111" value="" style="ellipse;html=1;shape=endState;fillColor=strokeColor;" vertex="1" parent="wstb7iu3mfs-qTQPYTGj-7">
          <mxGeometry x="230" y="2090" width="30" height="30" as="geometry" />
        </mxCell>
        <mxCell id="wstb7iu3mfs-qTQPYTGj-122" value="Fin" style="text;html=1;align=center;verticalAlign=middle;resizable=0;points=[];autosize=1;strokeColor=none;fillColor=none;" vertex="1" parent="wstb7iu3mfs-qTQPYTGj-7">
          <mxGeometry x="225" y="2120" width="40" height="30" as="geometry" />
        </mxCell>
        <mxCell id="wstb7iu3mfs-qTQPYTGj-20" value="Sistema Automatizado" style="swimlane;whiteSpace=wrap;html=1;" vertex="1" parent="1">
          <mxGeometry x="1070" y="50" width="670" height="2190" as="geometry" />
        </mxCell>
        <mxCell id="wstb7iu3mfs-qTQPYTGj-88" style="edgeStyle=orthogonalEdgeStyle;rounded=0;orthogonalLoop=1;jettySize=auto;html=1;" edge="1" parent="wstb7iu3mfs-qTQPYTGj-20" source="wstb7iu3mfs-qTQPYTGj-76" target="wstb7iu3mfs-qTQPYTGj-81">
          <mxGeometry relative="1" as="geometry" />
        </mxCell>
        <mxCell id="wstb7iu3mfs-qTQPYTGj-76" value="&lt;span style=&quot;text-align: right;&quot;&gt;Asignar productos al pedido&lt;/span&gt;" style="html=1;dashed=0;rounded=1;absoluteArcSize=1;arcSize=20;verticalAlign=middle;align=center;whiteSpace=wrap;" vertex="1" parent="wstb7iu3mfs-qTQPYTGj-20">
          <mxGeometry x="74" y="1150" width="192.5" height="30" as="geometry" />
        </mxCell>
        <mxCell id="wstb7iu3mfs-qTQPYTGj-77" value="*" style="text;resizeWidth=0;resizeHeight=0;points=[];part=1;verticalAlign=middle;align=center;html=1;" vertex="1" parent="wstb7iu3mfs-qTQPYTGj-76">
          <mxGeometry x="1" y="0.5" width="20" height="20" relative="1" as="geometry">
            <mxPoint x="-20" y="-10" as="offset" />
          </mxGeometry>
        </mxCell>
        <mxCell id="wstb7iu3mfs-qTQPYTGj-85" style="edgeStyle=orthogonalEdgeStyle;rounded=0;orthogonalLoop=1;jettySize=auto;html=1;" edge="1" parent="wstb7iu3mfs-qTQPYTGj-20" source="wstb7iu3mfs-qTQPYTGj-78">
          <mxGeometry relative="1" as="geometry">
            <mxPoint x="500" y="1150" as="targetPoint" />
            <Array as="points">
              <mxPoint x="490" y="1095" />
              <mxPoint x="490" y="1151" />
            </Array>
          </mxGeometry>
        </mxCell>
        <mxCell id="wstb7iu3mfs-qTQPYTGj-90" value="No" style="edgeLabel;html=1;align=center;verticalAlign=middle;resizable=0;points=[];" vertex="1" connectable="0" parent="wstb7iu3mfs-qTQPYTGj-85">
          <mxGeometry x="-0.5499" relative="1" as="geometry">
            <mxPoint as="offset" />
          </mxGeometry>
        </mxCell>
        <mxCell id="wstb7iu3mfs-qTQPYTGj-86" style="edgeStyle=orthogonalEdgeStyle;rounded=0;orthogonalLoop=1;jettySize=auto;html=1;entryX=0.5;entryY=0;entryDx=0;entryDy=0;" edge="1" parent="wstb7iu3mfs-qTQPYTGj-20" source="wstb7iu3mfs-qTQPYTGj-78" target="wstb7iu3mfs-qTQPYTGj-76">
          <mxGeometry relative="1" as="geometry" />
        </mxCell>
        <mxCell id="wstb7iu3mfs-qTQPYTGj-89" value="Si" style="edgeLabel;html=1;align=center;verticalAlign=middle;resizable=0;points=[];" vertex="1" connectable="0" parent="wstb7iu3mfs-qTQPYTGj-86">
          <mxGeometry x="-0.5894" y="2" relative="1" as="geometry">
            <mxPoint as="offset" />
          </mxGeometry>
        </mxCell>
        <mxCell id="wstb7iu3mfs-qTQPYTGj-78" value="¿Stock disponible?" style="rhombus;" vertex="1" parent="wstb7iu3mfs-qTQPYTGj-20">
          <mxGeometry x="272.5" y="1040" width="125" height="110" as="geometry" />
        </mxCell>
        <mxCell id="wstb7iu3mfs-qTQPYTGj-87" style="edgeStyle=orthogonalEdgeStyle;rounded=0;orthogonalLoop=1;jettySize=auto;html=1;entryX=0.5;entryY=0;entryDx=0;entryDy=0;" edge="1" parent="wstb7iu3mfs-qTQPYTGj-20" source="wstb7iu3mfs-qTQPYTGj-79" target="wstb7iu3mfs-qTQPYTGj-83">
          <mxGeometry relative="1" as="geometry" />
        </mxCell>
        <mxCell id="wstb7iu3mfs-qTQPYTGj-79" value="&lt;span style=&quot;text-align: right;&quot;&gt;Notificar falta de stock al cliente&lt;/span&gt;" style="html=1;dashed=0;rounded=1;absoluteArcSize=1;arcSize=20;verticalAlign=middle;align=center;whiteSpace=wrap;" vertex="1" parent="wstb7iu3mfs-qTQPYTGj-20">
          <mxGeometry x="400" y="1150" width="192.5" height="30" as="geometry" />
        </mxCell>
        <mxCell id="wstb7iu3mfs-qTQPYTGj-80" value="*" style="text;resizeWidth=0;resizeHeight=0;points=[];part=1;verticalAlign=middle;align=center;html=1;" vertex="1" parent="wstb7iu3mfs-qTQPYTGj-79">
          <mxGeometry x="1" y="0.5" width="20" height="20" relative="1" as="geometry">
            <mxPoint x="-20" y="-10" as="offset" />
          </mxGeometry>
        </mxCell>
        <mxCell id="wstb7iu3mfs-qTQPYTGj-81" value="&lt;span style=&quot;text-align: right;&quot;&gt;Generar&amp;nbsp; Orden de Compra&lt;/span&gt;" style="html=1;dashed=0;rounded=1;absoluteArcSize=1;arcSize=20;verticalAlign=middle;align=center;whiteSpace=wrap;" vertex="1" parent="wstb7iu3mfs-qTQPYTGj-20">
          <mxGeometry x="74" y="1240" width="192.5" height="30" as="geometry" />
        </mxCell>
        <mxCell id="wstb7iu3mfs-qTQPYTGj-82" value="*" style="text;resizeWidth=0;resizeHeight=0;points=[];part=1;verticalAlign=middle;align=center;html=1;" vertex="1" parent="wstb7iu3mfs-qTQPYTGj-81">
          <mxGeometry x="1" y="0.5" width="20" height="20" relative="1" as="geometry">
            <mxPoint x="-20" y="-10" as="offset" />
          </mxGeometry>
        </mxCell>
        <mxCell id="wstb7iu3mfs-qTQPYTGj-83" value="" style="ellipse;html=1;shape=endState;fillColor=strokeColor;" vertex="1" parent="wstb7iu3mfs-qTQPYTGj-20">
          <mxGeometry x="481" y="1240" width="30" height="30" as="geometry" />
        </mxCell>
        <mxCell id="wstb7iu3mfs-qTQPYTGj-84" value="Fin" style="text;html=1;align=center;verticalAlign=middle;resizable=0;points=[];autosize=1;strokeColor=none;fillColor=none;" vertex="1" parent="wstb7iu3mfs-qTQPYTGj-20">
          <mxGeometry x="476.25" y="1278" width="40" height="30" as="geometry" />
        </mxCell>
        <mxCell id="wstb7iu3mfs-qTQPYTGj-22" value="Sistema de WEB-Cántabra" style="swimlane;whiteSpace=wrap;html=1;" vertex="1" parent="1">
          <mxGeometry x="530" y="50" width="540" height="2190" as="geometry" />
        </mxCell>
        <mxCell id="wstb7iu3mfs-qTQPYTGj-92" style="edgeStyle=orthogonalEdgeStyle;rounded=0;orthogonalLoop=1;jettySize=auto;html=1;entryX=0.5;entryY=0;entryDx=0;entryDy=0;" edge="1" parent="wstb7iu3mfs-qTQPYTGj-22" source="wstb7iu3mfs-qTQPYTGj-54" target="wstb7iu3mfs-qTQPYTGj-56">
          <mxGeometry relative="1" as="geometry" />
        </mxCell>
        <mxCell id="wstb7iu3mfs-qTQPYTGj-54" value="&lt;span style=&quot;text-align: right;&quot;&gt;Recibir solicitud de pedido&lt;/span&gt;" style="html=1;dashed=0;rounded=1;absoluteArcSize=1;arcSize=20;verticalAlign=middle;align=center;whiteSpace=wrap;" vertex="1" parent="wstb7iu3mfs-qTQPYTGj-22">
          <mxGeometry x="170" y="560" width="192.5" height="30" as="geometry" />
        </mxCell>
        <mxCell id="wstb7iu3mfs-qTQPYTGj-55" value="*" style="text;resizeWidth=0;resizeHeight=0;points=[];part=1;verticalAlign=middle;align=center;html=1;" vertex="1" parent="wstb7iu3mfs-qTQPYTGj-54">
          <mxGeometry x="1" y="0.5" width="20" height="20" relative="1" as="geometry">
            <mxPoint x="-20" y="-10" as="offset" />
          </mxGeometry>
        </mxCell>
        <mxCell id="wstb7iu3mfs-qTQPYTGj-93" style="edgeStyle=orthogonalEdgeStyle;rounded=0;orthogonalLoop=1;jettySize=auto;html=1;" edge="1" parent="wstb7iu3mfs-qTQPYTGj-22" source="wstb7iu3mfs-qTQPYTGj-56">
          <mxGeometry relative="1" as="geometry">
            <mxPoint x="266.25" y="670" as="targetPoint" />
          </mxGeometry>
        </mxCell>
        <mxCell id="wstb7iu3mfs-qTQPYTGj-56" value="&lt;span style=&quot;text-align: right;&quot;&gt;Validar información del pedido&lt;/span&gt;" style="html=1;dashed=0;rounded=1;absoluteArcSize=1;arcSize=20;verticalAlign=middle;align=center;whiteSpace=wrap;" vertex="1" parent="wstb7iu3mfs-qTQPYTGj-22">
          <mxGeometry x="170" y="620" width="192.5" height="30" as="geometry" />
        </mxCell>
        <mxCell id="wstb7iu3mfs-qTQPYTGj-57" value="*" style="text;resizeWidth=0;resizeHeight=0;points=[];part=1;verticalAlign=middle;align=center;html=1;" vertex="1" parent="wstb7iu3mfs-qTQPYTGj-56">
          <mxGeometry x="1" y="0.5" width="20" height="20" relative="1" as="geometry">
            <mxPoint x="-20" y="-10" as="offset" />
          </mxGeometry>
        </mxCell>
        <mxCell id="wstb7iu3mfs-qTQPYTGj-65" style="edgeStyle=orthogonalEdgeStyle;rounded=0;orthogonalLoop=1;jettySize=auto;html=1;entryX=0.5;entryY=0;entryDx=0;entryDy=0;exitX=1;exitY=0.5;exitDx=0;exitDy=0;" edge="1" parent="wstb7iu3mfs-qTQPYTGj-22" source="wstb7iu3mfs-qTQPYTGj-58" target="wstb7iu3mfs-qTQPYTGj-61">
          <mxGeometry relative="1" as="geometry" />
        </mxCell>
        <mxCell id="wstb7iu3mfs-qTQPYTGj-73" value="No" style="edgeLabel;html=1;align=center;verticalAlign=middle;resizable=0;points=[];" vertex="1" connectable="0" parent="wstb7iu3mfs-qTQPYTGj-65">
          <mxGeometry x="-0.4888" y="-2" relative="1" as="geometry">
            <mxPoint as="offset" />
          </mxGeometry>
        </mxCell>
        <mxCell id="wstb7iu3mfs-qTQPYTGj-68" style="edgeStyle=orthogonalEdgeStyle;rounded=0;orthogonalLoop=1;jettySize=auto;html=1;entryX=0.5;entryY=0;entryDx=0;entryDy=0;exitX=0;exitY=0.5;exitDx=0;exitDy=0;" edge="1" parent="wstb7iu3mfs-qTQPYTGj-22" source="wstb7iu3mfs-qTQPYTGj-58" target="wstb7iu3mfs-qTQPYTGj-59">
          <mxGeometry relative="1" as="geometry" />
        </mxCell>
        <mxCell id="wstb7iu3mfs-qTQPYTGj-72" value="Si" style="edgeLabel;html=1;align=center;verticalAlign=middle;resizable=0;points=[];" vertex="1" connectable="0" parent="wstb7iu3mfs-qTQPYTGj-68">
          <mxGeometry x="-0.5135" relative="1" as="geometry">
            <mxPoint as="offset" />
          </mxGeometry>
        </mxCell>
        <mxCell id="wstb7iu3mfs-qTQPYTGj-58" value="¿El pedido es váliodo?" style="rhombus;" vertex="1" parent="wstb7iu3mfs-qTQPYTGj-22">
          <mxGeometry x="191.25" y="680" width="150" height="130" as="geometry" />
        </mxCell>
        <mxCell id="wstb7iu3mfs-qTQPYTGj-71" style="edgeStyle=orthogonalEdgeStyle;rounded=0;orthogonalLoop=1;jettySize=auto;html=1;entryX=0.5;entryY=0;entryDx=0;entryDy=0;" edge="1" parent="wstb7iu3mfs-qTQPYTGj-22" source="wstb7iu3mfs-qTQPYTGj-59" target="wstb7iu3mfs-qTQPYTGj-63">
          <mxGeometry relative="1" as="geometry" />
        </mxCell>
        <mxCell id="wstb7iu3mfs-qTQPYTGj-59" value="&lt;span style=&quot;text-align: right;&quot;&gt;Enviar solicitud de pedido&lt;/span&gt;" style="html=1;dashed=0;rounded=1;absoluteArcSize=1;arcSize=20;verticalAlign=middle;align=center;whiteSpace=wrap;" vertex="1" parent="wstb7iu3mfs-qTQPYTGj-22">
          <mxGeometry x="27.5" y="820" width="192.5" height="30" as="geometry" />
        </mxCell>
        <mxCell id="wstb7iu3mfs-qTQPYTGj-60" value="*" style="text;resizeWidth=0;resizeHeight=0;points=[];part=1;verticalAlign=middle;align=center;html=1;" vertex="1" parent="wstb7iu3mfs-qTQPYTGj-59">
          <mxGeometry x="1" y="0.5" width="20" height="20" relative="1" as="geometry">
            <mxPoint x="-20" y="-10" as="offset" />
          </mxGeometry>
        </mxCell>
        <mxCell id="wstb7iu3mfs-qTQPYTGj-74" style="edgeStyle=orthogonalEdgeStyle;rounded=0;orthogonalLoop=1;jettySize=auto;html=1;entryX=0.5;entryY=0;entryDx=0;entryDy=0;" edge="1" parent="wstb7iu3mfs-qTQPYTGj-22" source="wstb7iu3mfs-qTQPYTGj-61" target="wstb7iu3mfs-qTQPYTGj-70">
          <mxGeometry relative="1" as="geometry" />
        </mxCell>
        <mxCell id="wstb7iu3mfs-qTQPYTGj-61" value="&lt;span style=&quot;text-align: right;&quot;&gt;Enviar solicitud de pedido&lt;/span&gt;" style="html=1;dashed=0;rounded=1;absoluteArcSize=1;arcSize=20;verticalAlign=middle;align=center;whiteSpace=wrap;" vertex="1" parent="wstb7iu3mfs-qTQPYTGj-22">
          <mxGeometry x="320" y="820" width="192.5" height="30" as="geometry" />
        </mxCell>
        <mxCell id="wstb7iu3mfs-qTQPYTGj-62" value="*" style="text;resizeWidth=0;resizeHeight=0;points=[];part=1;verticalAlign=middle;align=center;html=1;" vertex="1" parent="wstb7iu3mfs-qTQPYTGj-61">
          <mxGeometry x="1" y="0.5" width="20" height="20" relative="1" as="geometry">
            <mxPoint x="-20" y="-10" as="offset" />
          </mxGeometry>
        </mxCell>
        <mxCell id="wstb7iu3mfs-qTQPYTGj-63" value="&lt;span style=&quot;text-align: right;&quot;&gt;Enviar solicitud de pedido&lt;/span&gt;" style="html=1;dashed=0;rounded=1;absoluteArcSize=1;arcSize=20;verticalAlign=middle;align=center;whiteSpace=wrap;" vertex="1" parent="wstb7iu3mfs-qTQPYTGj-22">
          <mxGeometry x="173.75" y="950" width="192.5" height="30" as="geometry" />
        </mxCell>
        <mxCell id="wstb7iu3mfs-qTQPYTGj-64" value="*" style="text;resizeWidth=0;resizeHeight=0;points=[];part=1;verticalAlign=middle;align=center;html=1;" vertex="1" parent="wstb7iu3mfs-qTQPYTGj-63">
          <mxGeometry x="1" y="0.5" width="20" height="20" relative="1" as="geometry">
            <mxPoint x="-20" y="-10" as="offset" />
          </mxGeometry>
        </mxCell>
        <mxCell id="wstb7iu3mfs-qTQPYTGj-70" value="" style="ellipse;html=1;shape=endState;fillColor=strokeColor;" vertex="1" parent="wstb7iu3mfs-qTQPYTGj-22">
          <mxGeometry x="401" y="890" width="30" height="30" as="geometry" />
        </mxCell>
        <mxCell id="wstb7iu3mfs-qTQPYTGj-75" value="Fin" style="text;html=1;align=center;verticalAlign=middle;resizable=0;points=[];autosize=1;strokeColor=none;fillColor=none;" vertex="1" parent="wstb7iu3mfs-qTQPYTGj-22">
          <mxGeometry x="396.25" y="920" width="40" height="30" as="geometry" />
        </mxCell>
        <mxCell id="wstb7iu3mfs-qTQPYTGj-114" style="edgeStyle=orthogonalEdgeStyle;rounded=0;orthogonalLoop=1;jettySize=auto;html=1;" edge="1" parent="wstb7iu3mfs-qTQPYTGj-22" source="wstb7iu3mfs-qTQPYTGj-97">
          <mxGeometry relative="1" as="geometry">
            <mxPoint x="305" y="1470" as="targetPoint" />
          </mxGeometry>
        </mxCell>
        <mxCell id="wstb7iu3mfs-qTQPYTGj-97" value="&lt;span style=&quot;text-align: right;&quot;&gt;Registrar pago recibido&lt;/span&gt;" style="html=1;dashed=0;rounded=1;absoluteArcSize=1;arcSize=20;verticalAlign=middle;align=center;whiteSpace=wrap;" vertex="1" parent="wstb7iu3mfs-qTQPYTGj-22">
          <mxGeometry x="230" y="1420" width="150" height="30" as="geometry" />
        </mxCell>
        <mxCell id="wstb7iu3mfs-qTQPYTGj-98" value="*" style="text;resizeWidth=0;resizeHeight=0;points=[];part=1;verticalAlign=middle;align=center;html=1;" vertex="1" parent="wstb7iu3mfs-qTQPYTGj-97">
          <mxGeometry x="1" y="0.5" width="20" height="20" relative="1" as="geometry">
            <mxPoint x="-20" y="-10" as="offset" />
          </mxGeometry>
        </mxCell>
        <mxCell id="wstb7iu3mfs-qTQPYTGj-99" value="&lt;span style=&quot;text-align: right;&quot;&gt;Actualizar estado del pedido a &quot;En proceso&quot;&lt;/span&gt;" style="html=1;dashed=0;rounded=1;absoluteArcSize=1;arcSize=20;verticalAlign=middle;align=center;whiteSpace=wrap;" vertex="1" parent="wstb7iu3mfs-qTQPYTGj-22">
          <mxGeometry x="170" y="1480" width="270" height="40" as="geometry" />
        </mxCell>
        <mxCell id="wstb7iu3mfs-qTQPYTGj-100" value="*" style="text;resizeWidth=0;resizeHeight=0;points=[];part=1;verticalAlign=middle;align=center;html=1;" vertex="1" parent="wstb7iu3mfs-qTQPYTGj-99">
          <mxGeometry x="1" y="0.5" width="20" height="20" relative="1" as="geometry">
            <mxPoint x="-20" y="-10" as="offset" />
          </mxGeometry>
        </mxCell>
        <mxCell id="wstb7iu3mfs-qTQPYTGj-119" style="edgeStyle=orthogonalEdgeStyle;rounded=0;orthogonalLoop=1;jettySize=auto;html=1;" edge="1" parent="wstb7iu3mfs-qTQPYTGj-22" source="wstb7iu3mfs-qTQPYTGj-105" target="wstb7iu3mfs-qTQPYTGj-107">
          <mxGeometry relative="1" as="geometry" />
        </mxCell>
        <mxCell id="wstb7iu3mfs-qTQPYTGj-105" value="&lt;span style=&quot;text-align: right;&quot;&gt;Actualizar estado del pedido a &quot;En proceso&quot;&lt;/span&gt;" style="html=1;dashed=0;rounded=1;absoluteArcSize=1;arcSize=20;verticalAlign=middle;align=center;whiteSpace=wrap;" vertex="1" parent="wstb7iu3mfs-qTQPYTGj-22">
          <mxGeometry x="140" y="1800" width="270" height="40" as="geometry" />
        </mxCell>
        <mxCell id="wstb7iu3mfs-qTQPYTGj-106" value="*" style="text;resizeWidth=0;resizeHeight=0;points=[];part=1;verticalAlign=middle;align=center;html=1;" vertex="1" parent="wstb7iu3mfs-qTQPYTGj-105">
          <mxGeometry x="1" y="0.5" width="20" height="20" relative="1" as="geometry">
            <mxPoint x="-20" y="-10" as="offset" />
          </mxGeometry>
        </mxCell>
        <mxCell id="wstb7iu3mfs-qTQPYTGj-107" value="&lt;span style=&quot;text-align: right;&quot;&gt;Actualizar estado del pedido a &quot;En proceso&quot;&lt;/span&gt;" style="html=1;dashed=0;rounded=1;absoluteArcSize=1;arcSize=20;verticalAlign=middle;align=center;whiteSpace=wrap;" vertex="1" parent="wstb7iu3mfs-qTQPYTGj-22">
          <mxGeometry x="140" y="1880" width="270" height="40" as="geometry" />
        </mxCell>
        <mxCell id="wstb7iu3mfs-qTQPYTGj-108" value="*" style="text;resizeWidth=0;resizeHeight=0;points=[];part=1;verticalAlign=middle;align=center;html=1;" vertex="1" parent="wstb7iu3mfs-qTQPYTGj-107">
          <mxGeometry x="1" y="0.5" width="20" height="20" relative="1" as="geometry">
            <mxPoint x="-20" y="-10" as="offset" />
          </mxGeometry>
        </mxCell>
        <mxCell id="wstb7iu3mfs-qTQPYTGj-21" value="Administrador" style="swimlane;whiteSpace=wrap;html=1;" vertex="1" parent="1">
          <mxGeometry x="1740" y="50" width="550" height="2190" as="geometry" />
        </mxCell>
        <mxCell id="wstb7iu3mfs-qTQPYTGj-117" style="edgeStyle=orthogonalEdgeStyle;rounded=0;orthogonalLoop=1;jettySize=auto;html=1;entryX=0.5;entryY=0;entryDx=0;entryDy=0;" edge="1" parent="wstb7iu3mfs-qTQPYTGj-21" source="wstb7iu3mfs-qTQPYTGj-101" target="wstb7iu3mfs-qTQPYTGj-103">
          <mxGeometry relative="1" as="geometry" />
        </mxCell>
        <mxCell id="wstb7iu3mfs-qTQPYTGj-101" value="&lt;span style=&quot;text-align: right;&quot;&gt;Revisar y procesar orden de compra&lt;/span&gt;" style="html=1;dashed=0;rounded=1;absoluteArcSize=1;arcSize=20;verticalAlign=middle;align=center;whiteSpace=wrap;" vertex="1" parent="wstb7iu3mfs-qTQPYTGj-21">
          <mxGeometry x="220" y="1570" width="250" height="30" as="geometry" />
        </mxCell>
        <mxCell id="wstb7iu3mfs-qTQPYTGj-102" value="*" style="text;resizeWidth=0;resizeHeight=0;points=[];part=1;verticalAlign=middle;align=center;html=1;" vertex="1" parent="wstb7iu3mfs-qTQPYTGj-101">
          <mxGeometry x="1" y="0.5" width="20" height="20" relative="1" as="geometry">
            <mxPoint x="-20" y="-10" as="offset" />
          </mxGeometry>
        </mxCell>
        <mxCell id="wstb7iu3mfs-qTQPYTGj-103" value="&lt;span style=&quot;text-align: right;&quot;&gt;Organizar envío del pedido&lt;/span&gt;" style="html=1;dashed=0;rounded=1;absoluteArcSize=1;arcSize=20;verticalAlign=middle;align=center;whiteSpace=wrap;" vertex="1" parent="wstb7iu3mfs-qTQPYTGj-21">
          <mxGeometry x="245" y="1640" width="200" height="30" as="geometry" />
        </mxCell>
        <mxCell id="wstb7iu3mfs-qTQPYTGj-104" value="*" style="text;resizeWidth=0;resizeHeight=0;points=[];part=1;verticalAlign=middle;align=center;html=1;" vertex="1" parent="wstb7iu3mfs-qTQPYTGj-103">
          <mxGeometry x="1" y="0.5" width="20" height="20" relative="1" as="geometry">
            <mxPoint x="-20" y="-10" as="offset" />
          </mxGeometry>
        </mxCell>
        <mxCell id="wstb7iu3mfs-qTQPYTGj-91" style="edgeStyle=orthogonalEdgeStyle;rounded=0;orthogonalLoop=1;jettySize=auto;html=1;exitX=0.25;exitY=1;exitDx=0;exitDy=0;" edge="1" parent="1" source="wstb7iu3mfs-qTQPYTGj-63" target="wstb7iu3mfs-qTQPYTGj-78">
          <mxGeometry relative="1" as="geometry">
            <mxPoint x="760" y="1060" as="sourcePoint" />
          </mxGeometry>
        </mxCell>
        <mxCell id="wstb7iu3mfs-qTQPYTGj-94" style="edgeStyle=orthogonalEdgeStyle;rounded=0;orthogonalLoop=1;jettySize=auto;html=1;" edge="1" parent="1" source="wstb7iu3mfs-qTQPYTGj-50" target="wstb7iu3mfs-qTQPYTGj-54">
          <mxGeometry relative="1" as="geometry">
            <Array as="points">
              <mxPoint x="228" y="580" />
              <mxPoint x="796" y="580" />
            </Array>
          </mxGeometry>
        </mxCell>
        <mxCell id="wstb7iu3mfs-qTQPYTGj-112" style="edgeStyle=orthogonalEdgeStyle;rounded=0;orthogonalLoop=1;jettySize=auto;html=1;entryX=0.5;entryY=0;entryDx=0;entryDy=0;" edge="1" parent="1" source="wstb7iu3mfs-qTQPYTGj-81" target="wstb7iu3mfs-qTQPYTGj-95">
          <mxGeometry relative="1" as="geometry">
            <Array as="points">
              <mxPoint x="1240" y="1360" />
              <mxPoint x="265" y="1360" />
            </Array>
          </mxGeometry>
        </mxCell>
        <mxCell id="wstb7iu3mfs-qTQPYTGj-113" style="edgeStyle=orthogonalEdgeStyle;rounded=0;orthogonalLoop=1;jettySize=auto;html=1;entryX=0.5;entryY=0;entryDx=0;entryDy=0;" edge="1" parent="1" source="wstb7iu3mfs-qTQPYTGj-95" target="wstb7iu3mfs-qTQPYTGj-97">
          <mxGeometry relative="1" as="geometry">
            <Array as="points">
              <mxPoint x="265" y="1440" />
              <mxPoint x="835" y="1440" />
            </Array>
          </mxGeometry>
        </mxCell>
        <mxCell id="wstb7iu3mfs-qTQPYTGj-116" style="edgeStyle=orthogonalEdgeStyle;rounded=0;orthogonalLoop=1;jettySize=auto;html=1;" edge="1" parent="1" source="wstb7iu3mfs-qTQPYTGj-99" target="wstb7iu3mfs-qTQPYTGj-101">
          <mxGeometry relative="1" as="geometry">
            <Array as="points">
              <mxPoint x="835" y="1580" />
              <mxPoint x="2085" y="1580" />
            </Array>
          </mxGeometry>
        </mxCell>
        <mxCell id="wstb7iu3mfs-qTQPYTGj-118" style="edgeStyle=orthogonalEdgeStyle;rounded=0;orthogonalLoop=1;jettySize=auto;html=1;entryX=0.5;entryY=0;entryDx=0;entryDy=0;" edge="1" parent="1" source="wstb7iu3mfs-qTQPYTGj-103" target="wstb7iu3mfs-qTQPYTGj-105">
          <mxGeometry relative="1" as="geometry">
            <Array as="points">
              <mxPoint x="2085" y="1790" />
              <mxPoint x="805" y="1790" />
            </Array>
          </mxGeometry>
        </mxCell>
        <mxCell id="wstb7iu3mfs-qTQPYTGj-120" style="edgeStyle=orthogonalEdgeStyle;rounded=0;orthogonalLoop=1;jettySize=auto;html=1;entryX=0.5;entryY=0;entryDx=0;entryDy=0;" edge="1" parent="1" source="wstb7iu3mfs-qTQPYTGj-107" target="wstb7iu3mfs-qTQPYTGj-109">
          <mxGeometry relative="1" as="geometry">
            <Array as="points">
              <mxPoint x="805" y="2000" />
              <mxPoint x="265" y="2000" />
            </Array>
          </mxGeometry>
        </mxCell>
      </root>
    </mxGraphModel>
  </diagram>
</mxfile>
